HIERARCHY
ROOT Hips
{
	OFFSET 0.000000 0.000000 0.000000
	CHANNELS 6 Xposition Yposition Zposition Zrotation Yrotation Xrotation 
	JOINT LowerBack
	{
		OFFSET 0.000000 0.000000 0.000000
		CHANNELS 3 Zrotation Yrotation Xrotation
		JOINT Spine
		{
			OFFSET 0.028270 2.035590 -0.193380
			CHANNELS 3 Zrotation Yrotation Xrotation
			JOINT Spine1
			{
				OFFSET 0.056720 2.048850 -0.042750
				CHANNELS 3 Zrotation Yrotation Xrotation
				JOINT Neck
				{
					OFFSET 0.000000 0.000000 0.000000
					CHANNELS 3 Zrotation Yrotation Xrotation
					JOINT Neck1
					{
						OFFSET -0.054170 1.746240 0.172020
						CHANNELS 3 Zrotation Yrotation Xrotation
						JOINT Head
						{
							OFFSET 0.104070 1.761360 -0.123970
							CHANNELS 3 Zrotation Yrotation Xrotation
							End Site
							{
								OFFSET 0.000000 0.000000 0.000000
							}
						}
					}
				}
				JOINT LeftShoulder
				{
					OFFSET 0.000000 0.000000 0.000000
					CHANNELS 3 Zrotation Yrotation Xrotation
					JOINT LeftArm
					{
						OFFSET 3.362410 1.200890 -0.311210
						CHANNELS 3 Zrotation Yrotation Xrotation
						JOINT LeftForeArm
						{
							OFFSET 4.983000 -0.000000 -0.000000
							CHANNELS 3 Zrotation Yrotation Xrotation
							JOINT LeftHand
							{
								OFFSET 3.483560 -0.000000 -0.000000
								CHANNELS 3 Zrotation Yrotation Xrotation
								JOINT LeftFingerBase
								{
									OFFSET 0.000000 0.000000 0.000000
									CHANNELS 3 Zrotation Yrotation Xrotation
									JOINT LeftHandIndex1
									{
										OFFSET 0.715260 -0.000000 -0.000000
										CHANNELS 3 Zrotation Yrotation Xrotation
										End Site
										{
											OFFSET 0.000000 0.000000 0.000000
										}
									}
								}
								JOINT LThumb
								{
									OFFSET 0.000000 0.000000 0.000000
									CHANNELS 3 Zrotation Yrotation Xrotation
									End Site
									{
										OFFSET 0.000000 0.000000 0.000000
									}
								}
							}
						}
					}
				}
				JOINT RightShoulder
				{
					OFFSET 0.000000 0.000000 0.000000
					CHANNELS 3 Zrotation Yrotation Xrotation
					JOINT RightArm
					{
						OFFSET -3.136600 1.374050 -0.404650
						CHANNELS 3 Zrotation Yrotation Xrotation
						JOINT RightForeArm
						{
							OFFSET -5.241900 -0.000000 -0.000000
							CHANNELS 3 Zrotation Yrotation Xrotation
							JOINT RightHand
							{
								OFFSET -3.444170 -0.000000 -0.000000
								CHANNELS 3 Zrotation Yrotation Xrotation
								JOINT RightFingerBase
								{
									OFFSET 0.000000 0.000000 0.000000
									CHANNELS 3 Zrotation Yrotation Xrotation
									JOINT RightHandIndex1
									{
										OFFSET -0.622530 -0.000000 -0.000000
										CHANNELS 3 Zrotation Yrotation Xrotation
										End Site
										{
											OFFSET 0.000000 0.000000 0.000000
										}
									}
								}
								JOINT RThumb
								{
									OFFSET 0.000000 0.000000 0.000000
									CHANNELS 3 Zrotation Yrotation Xrotation
									End Site
									{
										OFFSET 0.000000 0.000000 0.000000
									}
								}
							}
						}
					}
				}
			}
		}
	}
}
}
MOTION
Frames: 12
Frame Time: 0.008333
-4.587604 17.361706 1.204753 104.658324 -82.595367 -95.632535 -1.071549 -3.933684 -6.254354 -0.598895 -4.031184 -3.950871 -5.869791 -4.133960 0.819930 7.172254 -10.618621 -7.742483 -3.514893 -0.273704 0.021884 0.000000 0.000000 0.000000 -9.984869 7.627499 1.307945 -58.743698 -5.147883 16.136908 -2.520115 -48.303534 -0.007609 5.267642 0.769868 0.033035 -0.115009 0.095007 0.000000 0.000000 0.000000 0.000000 0.000000 0.000000 0.000000 14.023087 -8.417853 0.243882 72.386312 -1.439013 7.313995 3.130969 27.951726 0.007491 0.214392 3.896419 0.004864 0.090563 -0.056776 -0.000000 0.000000 0.000000 0.000000 0.000000 0.000000 0.000000 
-4.701324 17.360360 1.184388 106.660903 -82.486887 -97.644810 -1.148809 -4.082736 -6.170474 -0.594268 -4.168127 -3.931397 -5.846754 -4.270993 0.805854 7.172819 -10.928413 -7.754757 -3.487747 -0.271118 0.019519 0.000000 0.000000 0.000000 -9.885536 6.933905 1.387224 -58.157793 -5.714721 16.063423 -2.534040 -48.289458 -0.008034 5.311312 0.760652 0.032656 -0.116341 0.099291 0.000000 0.000000 0.000000 0.000000 0.000000 0.000000 0.000000 13.924304 -8.868401 0.287252 72.171278 -1.865083 7.980762 3.102202 28.518061 0.007322 0.373837 3.788233 0.010151 0.088795 -0.054553 -0.000000 0.000000 0.000000 0.000000 0.000000 0.000000 0.000000 
-4.815142 17.358024 1.163157 108.615231 -82.384413 -99.624526 -1.231402 -4.226600 -6.064918 -0.592820 -4.299164 -3.908669 -5.828779 -4.401826 0.786991 7.188169 -11.226124 -7.765365 -3.462730 -0.268707 0.017346 0.000000 0.000000 0.000000 -9.749490 6.232582 1.466839 -57.577799 -6.234712 15.957159 -2.546354 -48.266327 -0.008434 5.344099 0.751848 0.032273 -0.117456 0.103387 0.000000 0.000000 0.000000 0.000000 0.000000 0.000000 0.000000 13.847584 -9.300671 0.332005 71.932407 -2.302204 8.656509 3.071535 29.112694 0.007175 0.531457 3.702743 0.015139 0.086904 -0.052536 -0.000000 0.000000 0.000000 0.000000 0.000000 0.000000 0.000000 
-4.929491 17.354791 1.141214 110.491934 -82.287925 -101.540089 -1.317969 -4.367868 -5.943936 -0.593670 -4.427151 -3.882143 -5.814083 -4.529222 0.770460 7.216722 -11.517772 -7.779663 -3.438378 -0.266288 0.013899 0.000000 0.000000 0.000000 -9.587803 5.563355 1.545492 -57.004229 -6.753021 15.847567 -2.559534 -48.212420 -0.008808 5.368386 0.740524 0.031690 -0.118570 0.107363 0.000000 0.000000 0.000000 0.000000 0.000000 0.000000 0.000000 13.789914 -9.721318 0.373541 71.668228 -2.740505 9.351437 3.038882 29.728854 0.007049 0.681619 3.639719 0.019728 0.084957 -0.050654 -0.000000 0.000000 0.000000 0.000000 0.000000 0.000000 0.000000 
-5.044938 17.350776 1.118629 112.273019 -82.197550 -103.370051 -1.406624 -4.507213 -5.815426 -0.596085 -4.553075 -3.853903 -5.801127 -4.654287 0.754404 7.253442 -11.802093 -7.792948 -3.414484 -0.263925 0.010631 0.000000 0.000000 0.000000 -9.408421 4.913566 1.621638 -56.438910 -7.243156 15.726030 -2.572255 -48.142941 -0.009146 5.382304 0.726727 0.031004 -0.119552 0.111168 0.000000 0.000000 0.000000 0.000000 0.000000 0.000000 0.000000 13.743409 -10.130786 0.411884 71.382553 -3.184802 10.053379 3.005012 30.360496 0.006936 0.825851 3.593908 0.024117 0.082982 -0.048859 -0.000000 0.000000 0.000000 0.000000 0.000000 0.000000 0.000000 
-5.162027 17.346147 1.095573 113.949257 -82.114210 -105.100852 -1.494928 -4.644961 -5.689641 -0.599173 -4.677667 -3.826510 -5.788409 -4.777909 0.737143 7.293102 -12.079537 -7.800704 -3.390946 -0.261693 0.008982 0.000000 0.000000 0.000000 -9.219764 4.269737 1.693383 -55.883144 -7.676358 15.585083 -2.582922 -48.074807 -0.009441 5.385393 0.711193 0.030116 -0.120264 0.114736 0.000000 0.000000 0.000000 0.000000 0.000000 0.000000 0.000000 13.700642 -10.530958 0.447053 71.078507 -3.639855 10.750337 2.970758 31.003699 0.006830 0.968173 3.556674 0.028407 0.080998 -0.047086 -0.000000 0.000000 0.000000 0.000000 0.000000 0.000000 0.000000 
-5.281097 17.341010 1.072235 115.530783 -82.037023 -106.742269 -1.580427 -4.781968 -5.568716 -0.601848 -4.802025 -3.797793 -5.774156 -4.900990 0.729243 7.335710 -12.363566 -7.812763 -3.366060 -0.259322 0.006177 0.000000 0.000000 0.000000 -9.035807 3.687416 1.759597 -55.337593 -8.126812 15.465878 -2.595273 -47.971662 -0.009703 5.383517 0.691799 0.029027 -0.121039 0.118144 0.000000 0.000000 0.000000 0.000000 0.000000 0.000000 0.000000 13.662536 -10.935136 0.473593 70.748603 -4.083856 11.468014 2.935549 31.652890 0.006719 1.100858 3.524212 0.032296 0.079078 -0.045245 -0.000000 0.000000 0.000000 0.000000 0.000000 0.000000 0.000000 
-5.402795 17.335566 1.048692 117.029630 -81.967295 -108.298672 -1.659819 -4.916560 -5.465633 -0.603323 -4.924991 -3.772719 -5.757679 -5.022731 0.721915 7.374568 -12.648519 -7.817340 -3.341075 -0.257103 0.005784 0.000000 0.000000 0.000000 -8.860928 3.111837 1.818290 -54.805467 -8.508885 15.333040 -2.604667 -47.879266 -0.009920 5.373979 0.672677 0.027936 -0.121476 0.121224 0.000000 0.000000 0.000000 0.000000 0.000000 0.000000 0.000000 13.620431 -11.339227 0.495432 70.398509 -4.534500 12.175387 2.901004 32.308102 0.006592 1.237372 3.483364 0.036186 0.077183 -0.043289 -0.000000 0.000000 0.000000 0.000000 0.000000 0.000000 0.000000 
-5.527411 17.329999 1.025102 118.471373 -81.904610 -109.793874 -1.730278 -5.047633 -5.385793 -0.602776 -5.045770 -3.752129 -5.738165 -5.142386 0.716494 7.407940 -12.939849 -7.815072 -3.315920 -0.255035 0.007712 0.000000 0.000000 0.000000 -8.702807 2.546524 1.868138 -54.288894 -8.823562 15.192197 -2.610908 -47.798902 -0.010093 5.359479 0.655187 0.026842 -0.121575 0.123936 0.000000 0.000000 0.000000 0.000000 0.000000 0.000000 0.000000 13.573465 -11.748582 0.511919 70.025046 -4.986436 12.873812 2.867512 32.968025 0.006438 1.381215 3.426088 0.039975 0.075320 -0.041161 -0.000000 0.000000 0.000000 0.000000 0.000000 0.000000 0.000000 
-5.655180 17.324434 1.001611 119.898302 -81.847610 -111.269788 -1.788515 -5.174430 -5.328500 -0.599261 -5.163855 -3.733975 -5.714933 -5.259284 0.720908 7.437211 -13.243897 -7.814197 -3.289788 -0.252931 0.009562 0.000000 0.000000 0.000000 -8.570199 2.039402 1.909276 -53.791570 -9.138590 15.076656 -2.617607 -47.695275 -0.010242 5.345504 0.637809 0.025847 -0.121650 0.126359 0.000000 0.000000 0.000000 0.000000 0.000000 0.000000 0.000000 13.525622 -12.168046 0.518926 69.620581 -5.425328 13.576666 2.834558 33.633574 0.006255 1.531192 3.350528 0.043564 0.073486 -0.038818 -0.000000 0.000000 0.000000 0.000000 0.000000 0.000000 0.000000 
-5.786428 17.318995 0.978229 121.339364 -81.795955 -112.750585 -1.832178 -5.294569 -5.302346 -0.592344 -5.277181 -3.722136 -5.687995 -5.371665 0.727000 7.459100 -13.560557 -7.806348 -3.263972 -0.251035 0.013893 0.000000 0.000000 0.000000 -8.462691 1.536785 1.939786 -53.318272 -9.372415 14.951607 -2.620177 -47.612563 -0.010356 5.330126 0.625280 0.025150 -0.121327 0.128333 0.000000 0.000000 0.000000 0.000000 0.000000 0.000000 0.000000 13.473088 -12.598166 0.521294 69.187390 -5.858339 14.266918 2.803648 34.302766 0.006035 1.699174 3.247999 0.047153 0.071656 -0.036244 -0.000000 0.000000 0.000000 0.000000 0.000000 0.000000 0.000000 
-5.921005 17.313729 0.955063 122.840200 -81.747667 -114.286447 -1.859098 -5.407456 -5.301451 -0.581487 -5.385235 -3.713608 -5.657264 -5.478802 0.742005 7.477068 -13.889512 -7.800282 -3.237875 -0.249156 0.018045 0.000000 0.000000 0.000000 -8.383558 1.093385 1.961092 -52.875679 -9.605639 14.851745 -2.623148 -47.506111 -0.010455 5.319266 0.614245 0.024452 -0.120986 0.129999 0.000000 0.000000 0.000000 0.000000 0.000000 0.000000 0.000000 13.422409 -13.035902 0.514711 68.719701 -6.275555 14.950205 2.773913 34.979559 0.005776 1.884414 3.121994 0.050439 0.069781 -0.033446 -0.000000 0.000000 0.000000 0.000000 0.000000 0.000000 0.000000 
